<?xml version="1.0" standalone="no"?>
<!DOCTYPE svg PUBLIC "-//W3C//DTD SVG 20010904//EN"
 "http://www.w3.org/TR/2001/REC-SVG-20010904/DTD/svg10.dtd">
<svg version="1.0" xmlns="http://www.w3.org/2000/svg"
 width="987.000000pt" height="987.000000pt" viewBox="0 0 987.000000 987.000000"
 preserveAspectRatio="xMidYMid meet">
<metadata>
Created by potrace 1.14, written by Peter Selinger 2001-2017
</metadata>
<g transform="translate(0.000000,987.000000) scale(0.100000,-0.100000)"
fill="#000000" stroke="none">
<path d="M4435 9858 c-12 -34 -211 -570 -322 -868 -138 -371 -134 -359 -538
-1445 -335 -898 -695 -1868 -735 -1975 -15 -41 -110 -295 -210 -565 -101 -269
-211 -566 -245 -660 -35 -93 -161 -431 -280 -750 -119 -319 -248 -663 -285
-765 -134 -364 -231 -626 -245 -660 -8 -19 -44 -116 -81 -215 -36 -99 -116
-313 -176 -475 -60 -162 -146 -392 -189 -510 -44 -118 -84 -226 -90 -240 -6
-14 -44 -115 -84 -225 -40 -110 -99 -267 -129 -349 -31 -82 -54 -151 -52 -153
4 -4 424 499 680 815 21 26 59 71 85 101 25 30 57 69 71 86 14 18 80 99 148
181 67 82 137 167 155 189 17 21 129 156 247 300 118 143 242 294 275 335 33
41 112 136 175 211 63 76 138 165 165 200 28 34 97 119 155 189 58 70 173 209
255 310 83 100 188 228 235 284 47 56 121 147 165 201 44 54 121 147 170 206
50 59 144 174 210 255 66 80 130 158 143 173 12 14 57 69 100 121 79 98 281
344 360 438 l45 54 354 -354 353 -353 -49 -6 c-26 -4 -266 -10 -532 -14 -266
-4 -524 -10 -574 -14 l-89 -6 124 -94 c254 -192 417 -317 510 -388 52 -40 172
-131 265 -202 94 -71 202 -153 240 -183 61 -47 160 -122 443 -338 185 -141
277 -210 362 -275 51 -38 156 -118 234 -178 166 -127 208 -159 646 -492 264
-200 376 -286 440 -336 36 -28 139 -106 230 -175 91 -68 273 -206 404 -307
282 -214 589 -448 771 -586 255 -194 320 -244 323 -253 5 -11 22 -10 22 1 0 5
-48 110 -106 233 -112 236 -141 297 -223 473 -28 61 -58 121 -65 135 -11 20
-244 508 -426 895 -21 44 -70 148 -110 230 -40 83 -106 222 -147 310 -42 88
-103 216 -136 285 -33 69 -79 166 -102 215 -23 50 -63 133 -87 185 -47 100
-265 557 -676 1420 -134 283 -264 556 -287 605 -24 50 -66 140 -95 200 -64
134 -139 291 -192 405 -22 47 -78 163 -124 258 -46 96 -84 175 -84 177 0 2
-43 93 -95 201 -52 108 -95 198 -95 199 0 1 -32 69 -71 151 -39 82 -88 185
-109 229 -21 44 -66 139 -100 210 -34 72 -75 157 -90 190 -15 33 -79 168 -142
300 -64 132 -132 276 -153 320 -64 135 -130 274 -195 410 -34 72 -79 166 -100
210 -21 44 -68 143 -105 220 -37 77 -101 212 -142 300 -42 88 -115 243 -164
344 -49 101 -89 185 -89 186 0 9 -131 275 -135 275 -3 0 -8 -6 -10 -12z"/>
</g>
</svg>
